<?xml version="1.0" standalone="no"?>
<!DOCTYPE svg PUBLIC "-//W3C//DTD SVG 20010904//EN"
 "http://www.w3.org/TR/2001/REC-SVG-20010904/DTD/svg10.dtd">
<svg version="1.0" xmlns="http://www.w3.org/2000/svg"
 width="83.000000pt" height="64.000000pt" viewBox="0 0 83.000000 64.000000"
 preserveAspectRatio="xMidYMid meet">
<metadata>
Created by potrace 1.15, written by Peter Selinger 2001-2017
</metadata>
<g transform="translate(0.000000,64.000000) scale(0.100000,-0.100000)"
fill="#000000" stroke="none">
<path d="M7 633 c-13 -12 -8 -538 5 -551 8 -8 52 -12 130 -12 111 0 118 -1
118 -20 0 -15 -7 -20 -25 -20 -16 0 -25 -6 -25 -15 0 -13 30 -15 206 -15 160
0 205 3 202 13 -3 6 -17 13 -31 15 -19 2 -27 9 -27 23 0 18 8 19 124 19 92 0
126 3 135 14 8 9 11 92 9 282 l-3 269 -406 3 c-223 1 -408 -1 -412 -5z m793
-248 l0 -225 -85 0 -85 0 0 121 c0 92 -3 120 -12 117 -9 -3 -14 -39 -16 -121
l-3 -117 -39 0 c-40 0 -40 0 -40 40 0 29 -4 40 -15 40 -11 0 -15 -11 -15 -40
l0 -40 -40 0 -40 0 0 91 c0 68 -3 90 -12 87 -9 -3 -14 -33 -16 -91 l-3 -87
-39 0 c-39 0 -40 1 -40 36 0 44 -24 42 -28 -3 l-3 -31 -120 -1 -119 0 0 224 0
225 385 0 385 0 0 -225z m-2 -267 c-7 -19 -759 -19 -765 0 -4 9 77 12 382 12
305 0 386 -3 383 -12z"/>
<path d="M581 508 c-5 -13 -7 -26 -4 -31 6 -11 -35 -74 -59 -92 -19 -13 -24
-12 -49 6 -16 11 -29 31 -31 47 -3 24 -7 27 -38 27 -30 0 -36 -4 -38 -25 -5
-33 -50 -80 -78 -80 -15 0 -27 -10 -36 -27 -11 -23 -20 -28 -50 -28 -46 -1
-61 -14 -56 -51 3 -26 7 -29 38 -29 27 0 36 5 39 20 5 26 21 36 49 30 31 -7
62 11 62 37 0 25 46 78 68 78 24 0 67 -40 72 -68 4 -23 10 -27 40 -27 33 0 35
2 40 36 6 43 49 109 71 109 21 0 39 20 39 45 0 46 -63 64 -79 23z"/>
</g>
</svg>
